<?xml version="1.0" standalone="no"?>
<!DOCTYPE svg PUBLIC "-//W3C//DTD SVG 20010904//EN"
 "http://www.w3.org/TR/2001/REC-SVG-20010904/DTD/svg10.dtd">
<svg version="1.0" xmlns="http://www.w3.org/2000/svg"
 width="128.000000pt" height="128.000000pt" viewBox="0 0 128.000000 128.000000"
 preserveAspectRatio="xMidYMid meet">

<g transform="translate(0.000000,128.000000) scale(0.100000,-0.100000)"
fill="#000000" stroke="none">
<path d="M439 1161 c-20 -27 -26 -29 -103 -33 -78 -3 -85 -5 -196 -66 -63 -35
-121 -69 -128 -77 -12 -10 -10 -36 8 -156 12 -79 26 -148 30 -153 8 -8 97 7
188 31 l22 5 0 -270 c0 -231 2 -271 15 -276 9 -3 15 -19 15 -41 l0 -35 350 0
350 0 0 35 c0 22 6 38 15 41 13 5 15 45 15 276 l0 270 22 -5 c91 -24 180 -39
188 -31 4 5 18 74 30 153 18 120 20 146 8 156 -7 8 -65 42 -128 77 -111 61
-118 63 -196 66 -77 4 -83 6 -103 33 -26 36 -38 36 -102 3 -68 -34 -130 -34
-197 0 -65 33 -77 33 -103 -3z m93 -36 c71 -33 145 -33 216 0 51 24 72 25 72
5 0 -5 -26 -21 -57 -37 -79 -38 -164 -39 -245 -1 -55 26 -66 37 -51 51 8 9 4
10 65 -18z m-40 -62 c105 -54 191 -54 296 0 88 44 106 46 127 10 9 -16 37 -42
63 -58 47 -30 47 -31 44 -81 -4 -67 20 -96 108 -126 52 -19 66 -28 74 -51 16
-44 0 -48 -94 -27 -132 30 -120 42 -120 -121 l0 -141 -32 7 c-18 4 -44 14 -57
22 -21 14 -23 19 -16 62 15 95 11 121 -22 151 -17 15 -49 31 -71 35 -47 8 -75
35 -92 90 -30 97 -81 141 -152 132 -65 -9 -108 -65 -108 -142 0 -56 23 -98 83
-149 31 -26 59 -56 62 -67 4 -11 -3 -39 -15 -64 -25 -51 -22 -68 21 -136 16
-25 29 -54 29 -65 0 -11 -30 -46 -67 -81 l-68 -63 -97 0 -98 0 0 275 c0 255
-1 275 -17 275 -10 0 -56 -9 -101 -20 -46 -11 -88 -18 -93 -14 -14 8 -11 59 7
103 17 44 50 61 116 61 79 0 110 34 124 135 4 28 11 58 16 68 14 28 69 21 150
-20z m-195 14 c-3 -8 -8 -39 -12 -71 -8 -65 -29 -86 -85 -86 -50 0 -100 -16
-127 -42 l-23 -21 -2 36 c-1 20 -2 45 -2 54 -1 11 36 37 114 80 115 63 147 75
137 50z m653 -932 c0 -13 -41 -15 -310 -15 -269 0 -310 2 -310 15 0 13 41 15
310 15 269 0 310 -2 310 -15z"/>
</g>
</svg>
